<svg xmlns="http://www.w3.org/2000/svg" version="1.1" xmlns:xlink="http://www.w3.org/1999/xlink" viewBox="0 0 200 200" width="200" height="200"><metadata><rdf:RDF xmlns:rdf="http://www.w3.org/1999/02/22-rdf-syntax-ns#" xmlns:dc="http://purl.org/dc/elements/1.1/"><rdf:Description><dc:creator>RealFaviconGenerator</dc:creator><dc:source>https://realfavicongenerator.net</dc:source></rdf:Description></rdf:RDF></metadata><rect width="200" height="200" fill="url('#gradient')"></rect><defs><linearGradient id="gradient" gradientTransform="rotate(45 0.5 0.5)"><stop offset="0%" stop-color="#d4973b"></stop><stop offset="100%" stop-color="#d4973b"></stop></linearGradient></defs><g><g fill="#1e2128" transform="matrix(6.5766760563380275,0,0,6.5766760563380275,34.397070932361444,146.7644226584636)" stroke="#c8512e" stroke-width="0" data-darkreader-inline-fill="" data-darkreader-inline-stroke="" style="--darkreader-inline-fill: var(--darkreader-text-1e2128, #d0cac0); --darkreader-inline-stroke: var(--darkreader-text-c8512e, #ca7054);"><path d="M4.73-14.22L4.73 0L1.31 0L1.31-14.22L4.73-14.22ZM15.21-4.81L18.61-4.81Q18.54-3.33 17.81-2.19Q17.08-1.05 15.76-0.43Q14.43 0.20 12.73 0.20L12.73 0.20Q9.93 0.20 8.32-1.63Q6.71-3.46 6.71-6.79L6.71-6.79L6.71-7.49Q6.71-9.58 7.44-11.15Q8.16-12.71 9.53-13.57Q10.90-14.42 12.70-14.42L12.70-14.42Q15.28-14.42 16.86-13.06Q18.43-11.70 18.64-9.31L18.64-9.31L15.22-9.31Q15.19-10.61 14.57-11.17Q13.96-11.74 12.70-11.74L12.70-11.74Q11.42-11.74 10.82-10.78Q10.22-9.82 10.20-7.72L10.20-7.72L10.20-6.72Q10.20-4.44 10.77-3.47Q11.34-2.49 12.73-2.49L12.73-2.49Q13.92-2.49 14.54-3.05Q15.17-3.60 15.21-4.81L15.21-4.81Z"></path></g></g></svg>